<svg width="369" height="55" viewBox="0 0 369 55" fill="none" xmlns="http://www.w3.org/2000/svg">
<path d="M15.25 8.9C14.1167 8.9 13.3 9.16667 12.8 9.7C12.3 10.2333 12.05 11.1333 12.05 12.4V14.45H18.3L17.45 19.95H12.05V41H4.15V19.95H0.15V14.45H4.15V12.1C4.15 9.43333 5.01667 7.26666 6.75 5.6C8.51667 3.9 11.0333 3.05 14.3 3.05C16.9333 3.05 19.35 3.61666 21.55 4.75L19.4 9.9C18.0667 9.23333 16.6833 8.9 15.25 8.9ZM43.584 27.2C43.584 28.3 43.534 29.25 43.434 30.05H26.984C27.2507 32.2833 27.884 33.85 28.884 34.75C29.884 35.65 31.2673 36.1 33.034 36.1C34.1007 36.1 35.134 35.9167 36.134 35.55C37.134 35.15 38.2173 34.55 39.384 33.75L42.634 38.15C39.534 40.6167 36.084 41.85 32.284 41.85C27.984 41.85 24.684 40.5833 22.384 38.05C20.084 35.5167 18.934 32.1167 18.934 27.85C18.934 25.15 19.4173 22.7333 20.384 20.6C21.3507 18.4333 22.7673 16.7333 24.634 15.5C26.5007 14.2333 28.734 13.6 31.334 13.6C35.1673 13.6 38.1673 14.8 40.334 17.2C42.5007 19.6 43.584 22.9333 43.584 27.2ZM35.834 24.95C35.7673 20.8833 34.334 18.85 31.534 18.85C30.1673 18.85 29.1007 19.35 28.334 20.35C27.6007 21.35 27.1507 23 26.984 25.3H35.834V24.95ZM55.0719 41.85C52.7719 41.85 50.9719 41.2 49.6719 39.9C48.4052 38.5667 47.7719 36.6833 47.7719 34.25V3.9L55.6719 3.05V33.95C55.6719 35.05 56.1219 35.6 57.0219 35.6C57.4885 35.6 57.9219 35.5167 58.3219 35.35L59.8719 40.95C58.4385 41.55 56.8385 41.85 55.0719 41.85ZM70.7656 14.45V41H62.8656V14.45H70.7656ZM66.7656 0.449998C68.1323 0.449998 69.249 0.883331 70.1156 1.75C71.0156 2.58333 71.4656 3.65 71.4656 4.95C71.4656 6.25 71.0156 7.33333 70.1156 8.2C69.249 9.03333 68.1323 9.45 66.7656 9.45C65.399 9.45 64.2823 9.03333 63.4156 8.2C62.549 7.33333 62.1156 6.25 62.1156 4.95C62.1156 3.65 62.549 2.58333 63.4156 1.75C64.2823 0.883331 65.399 0.449998 66.7656 0.449998ZM91.977 13.6C95.3103 13.6 97.7936 14.8333 99.427 17.3C101.06 19.7667 101.877 23.2167 101.877 27.65C101.877 30.3833 101.444 32.8333 100.577 35C99.7436 37.1333 98.527 38.8167 96.927 40.05C95.327 41.25 93.4603 41.85 91.327 41.85C88.6603 41.85 86.5103 40.9333 84.877 39.1V51.25L76.977 52.1V14.45H83.927L84.327 17.4C85.3603 16.1 86.5436 15.15 87.877 14.55C89.2103 13.9167 90.577 13.6 91.977 13.6ZM88.927 36.05C92.0936 36.05 93.677 33.2833 93.677 27.75C93.677 24.6167 93.327 22.45 92.627 21.25C91.927 20.0167 90.877 19.4 89.477 19.4C88.577 19.4 87.727 19.6667 86.927 20.2C86.1603 20.7333 85.477 21.5 84.877 22.5V33.7C85.9436 35.2667 87.2936 36.05 88.927 36.05ZM129.961 27.2C129.961 28.3 129.911 29.25 129.811 30.05H113.361C113.628 32.2833 114.261 33.85 115.261 34.75C116.261 35.65 117.644 36.1 119.411 36.1C120.478 36.1 121.511 35.9167 122.511 35.55C123.511 35.15 124.594 34.55 125.761 33.75L129.011 38.15C125.911 40.6167 122.461 41.85 118.661 41.85C114.361 41.85 111.061 40.5833 108.761 38.05C106.461 35.5167 105.311 32.1167 105.311 27.85C105.311 25.15 105.794 22.7333 106.761 20.6C107.728 18.4333 109.144 16.7333 111.011 15.5C112.878 14.2333 115.111 13.6 117.711 13.6C121.544 13.6 124.544 14.8 126.711 17.2C128.878 19.6 129.961 22.9333 129.961 27.2ZM122.211 24.95C122.144 20.8833 120.711 18.85 117.911 18.85C116.544 18.85 115.478 19.35 114.711 20.35C113.978 21.35 113.528 23 113.361 25.3H122.211V24.95ZM170.714 16C168.981 16.7 166.431 17.05 163.064 17.05C164.797 17.7833 166.064 18.6833 166.864 19.75C167.664 20.8167 168.064 22.2 168.064 23.9C168.064 25.6 167.614 27.1333 166.714 28.5C165.814 29.8333 164.514 30.8833 162.814 31.65C161.147 32.4167 159.181 32.8 156.914 32.8C155.847 32.8 154.831 32.7 153.864 32.5C153.597 32.6333 153.381 32.85 153.214 33.15C153.081 33.4167 153.014 33.7 153.014 34C153.014 34.5 153.197 34.9 153.564 35.2C153.964 35.4667 154.747 35.6 155.914 35.6H159.914C161.947 35.6 163.731 35.9333 165.264 36.6C166.797 37.2667 167.981 38.1833 168.814 39.35C169.647 40.5167 170.064 41.8333 170.064 43.3C170.064 46.0667 168.864 48.2167 166.464 49.75C164.097 51.3167 160.664 52.1 156.164 52.1C152.931 52.1 150.381 51.75 148.514 51.05C146.647 50.3833 145.331 49.4333 144.564 48.2C143.831 46.9667 143.464 45.4167 143.464 43.55H150.564C150.564 44.35 150.714 44.9833 151.014 45.45C151.347 45.9167 151.931 46.2667 152.764 46.5C153.597 46.7333 154.797 46.85 156.364 46.85C158.531 46.85 160.031 46.5833 160.864 46.05C161.697 45.55 162.114 44.8167 162.114 43.85C162.114 43.05 161.797 42.4167 161.164 41.95C160.531 41.4833 159.581 41.25 158.314 41.25H154.464C151.731 41.25 149.681 40.7667 148.314 39.8C146.981 38.8 146.314 37.5333 146.314 36C146.314 35.0333 146.597 34.1 147.164 33.2C147.731 32.2667 148.497 31.5 149.464 30.9C147.797 30 146.581 28.95 145.814 27.75C145.081 26.5167 144.714 25.0333 144.714 23.3C144.714 20.3333 145.781 17.9833 147.914 16.25C150.047 14.4833 152.864 13.6 156.364 13.6C159.031 13.6667 161.281 13.4 163.114 12.8C164.981 12.2 166.897 11.3167 168.864 10.15L170.714 16ZM156.564 18.8C155.331 18.8 154.347 19.2 153.614 20C152.914 20.7667 152.564 21.8333 152.564 23.2C152.564 24.6333 152.914 25.75 153.614 26.55C154.347 27.3167 155.331 27.7 156.564 27.7C157.864 27.7 158.847 27.3167 159.514 26.55C160.214 25.7833 160.564 24.6333 160.564 23.1C160.564 20.2333 159.231 18.8 156.564 18.8ZM184.18 13.6C188.247 13.6 191.43 14.85 193.73 17.35C196.03 19.8167 197.18 23.2833 197.18 27.75C197.18 30.5833 196.647 33.0667 195.58 35.2C194.547 37.3 193.047 38.9333 191.08 40.1C189.147 41.2667 186.847 41.85 184.18 41.85C180.147 41.85 176.963 40.6167 174.63 38.15C172.33 35.65 171.18 32.1667 171.18 27.7C171.18 24.8667 171.697 22.4 172.73 20.3C173.797 18.1667 175.297 16.5167 177.23 15.35C179.197 14.1833 181.513 13.6 184.18 13.6ZM184.18 19.4C182.58 19.4 181.38 20.0833 180.58 21.45C179.78 22.7833 179.38 24.8667 179.38 27.7C179.38 30.6 179.763 32.7167 180.53 34.05C181.33 35.3833 182.547 36.05 184.18 36.05C185.78 36.05 186.98 35.3833 187.78 34.05C188.58 32.6833 188.98 30.5833 188.98 27.75C188.98 24.85 188.58 22.7333 187.78 21.4C187.013 20.0667 185.813 19.4 184.18 19.4ZM217.429 13.6C219.729 13.6 221.529 14.3 222.829 15.7C224.129 17.1 224.779 19.0667 224.779 21.6V41H216.879V22.95C216.879 21.6167 216.663 20.7 216.229 20.2C215.829 19.6667 215.213 19.4 214.379 19.4C212.779 19.4 211.246 20.55 209.779 22.85V41H201.879V14.45H208.779L209.329 17.6C210.463 16.2667 211.679 15.2667 212.979 14.6C214.313 13.9333 215.796 13.6 217.429 13.6ZM251.337 38.7C249.07 40.5 246.553 41.5333 243.787 41.8V43.4C245.553 43.6 246.853 44.1167 247.687 44.95C248.553 45.8167 248.987 46.95 248.987 48.35C248.987 50.05 248.303 51.4333 246.937 52.5C245.603 53.5667 243.803 54.1 241.537 54.1C240.403 54.1 239.353 53.95 238.387 53.65C237.42 53.3833 236.603 53.0333 235.937 52.6L237.737 48.95C238.87 49.5167 239.937 49.8 240.937 49.8C242.503 49.8 243.287 49.3 243.287 48.3C243.287 47.7 242.92 47.2667 242.187 47C241.453 46.7333 240.287 46.6 238.687 46.6L239.287 41.55C236.153 40.9167 233.687 39.4 231.887 37C230.12 34.6 229.237 31.5833 229.237 27.95C229.237 25.15 229.77 22.6667 230.837 20.5C231.903 18.3333 233.42 16.65 235.387 15.45C237.353 14.2167 239.637 13.6 242.237 13.6C244.07 13.6 245.72 13.8667 247.187 14.4C248.653 14.9333 250.037 15.75 251.337 16.85L247.937 21.55C246.27 20.2833 244.587 19.65 242.887 19.65C241.12 19.65 239.787 20.3 238.887 21.6C237.987 22.9 237.537 25 237.537 27.9C237.537 30.7 237.987 32.6833 238.887 33.85C239.787 35.0167 241.087 35.6 242.787 35.6C243.687 35.6 244.503 35.4667 245.237 35.2C245.97 34.9 246.853 34.4333 247.887 33.8L251.337 38.7ZM275.274 33.3C275.274 34.3 275.408 35.0333 275.674 35.5C275.974 35.9667 276.441 36.3167 277.074 36.55L275.424 41.7C273.791 41.5667 272.458 41.2167 271.424 40.65C270.391 40.05 269.591 39.1167 269.024 37.85C267.291 40.5167 264.624 41.85 261.024 41.85C258.391 41.85 256.291 41.0833 254.724 39.55C253.158 38.0167 252.374 36.0167 252.374 33.55C252.374 30.65 253.441 28.4333 255.574 26.9C257.708 25.3667 260.791 24.6 264.824 24.6H267.524V23.45C267.524 21.8833 267.191 20.8167 266.524 20.25C265.858 19.65 264.691 19.35 263.024 19.35C262.158 19.35 261.108 19.4833 259.874 19.75C258.641 19.9833 257.374 20.3167 256.074 20.75L254.274 15.55C255.941 14.9167 257.641 14.4333 259.374 14.1C261.141 13.7667 262.774 13.6 264.274 13.6C268.074 13.6 270.858 14.3833 272.624 15.95C274.391 17.5167 275.274 19.8667 275.274 23V33.3ZM263.324 36.2C265.124 36.2 266.524 35.35 267.524 33.65V28.95H265.574C263.774 28.95 262.424 29.2667 261.524 29.9C260.658 30.5333 260.224 31.5167 260.224 32.85C260.224 33.9167 260.491 34.75 261.024 35.35C261.591 35.9167 262.358 36.2 263.324 36.2ZM288.129 41.85C285.829 41.85 284.029 41.2 282.729 39.9C281.462 38.5667 280.829 36.6833 280.829 34.25V3.9L288.729 3.05V33.95C288.729 35.05 289.179 35.6 290.079 35.6C290.545 35.6 290.979 35.5167 291.379 35.35L292.929 40.95C291.495 41.55 289.895 41.85 288.129 41.85ZM318.284 14.45L309.934 41H300.584L292.034 14.45H300.634L305.334 35L310.234 14.45H318.284ZM343.828 27.2C343.828 28.3 343.778 29.25 343.678 30.05H327.228C327.495 32.2833 328.128 33.85 329.128 34.75C330.128 35.65 331.511 36.1 333.278 36.1C334.345 36.1 335.378 35.9167 336.378 35.55C337.378 35.15 338.461 34.55 339.628 33.75L342.878 38.15C339.778 40.6167 336.328 41.85 332.528 41.85C328.228 41.85 324.928 40.5833 322.628 38.05C320.328 35.5167 319.178 32.1167 319.178 27.85C319.178 25.15 319.661 22.7333 320.628 20.6C321.595 18.4333 323.011 16.7333 324.878 15.5C326.745 14.2333 328.978 13.6 331.578 13.6C335.411 13.6 338.411 14.8 340.578 17.2C342.745 19.6 343.828 22.9333 343.828 27.2ZM336.078 24.95C336.011 20.8833 334.578 18.85 331.778 18.85C330.411 18.85 329.345 19.35 328.578 20.35C327.845 21.35 327.395 23 327.228 25.3H336.078V24.95ZM357.616 13.6C359.516 13.6 361.299 13.8833 362.966 14.45C364.633 15.0167 366.099 15.8167 367.366 16.85L364.466 21.3C362.299 19.9333 360.116 19.25 357.916 19.25C356.883 19.25 356.083 19.4333 355.516 19.8C354.983 20.1333 354.716 20.6167 354.716 21.25C354.716 21.75 354.833 22.1667 355.066 22.5C355.333 22.8 355.849 23.1167 356.616 23.45C357.383 23.7833 358.566 24.1833 360.166 24.65C362.933 25.45 364.983 26.5 366.316 27.8C367.683 29.0667 368.366 30.8333 368.366 33.1C368.366 34.9 367.849 36.4667 366.816 37.8C365.783 39.1 364.366 40.1 362.566 40.8C360.766 41.5 358.766 41.85 356.566 41.85C354.333 41.85 352.249 41.5 350.316 40.8C348.416 40.1 346.799 39.1333 345.466 37.9L349.316 33.6C351.549 35.3333 353.899 36.2 356.366 36.2C357.566 36.2 358.499 35.9833 359.166 35.55C359.866 35.1167 360.216 34.5 360.216 33.7C360.216 33.0667 360.083 32.5667 359.816 32.2C359.549 31.8333 359.033 31.5 358.266 31.2C357.499 30.8667 356.283 30.4667 354.616 30C351.983 29.2333 350.016 28.1667 348.716 26.8C347.416 25.4333 346.766 23.7333 346.766 21.7C346.766 20.1667 347.199 18.8 348.066 17.6C348.966 16.3667 350.233 15.4 351.866 14.7C353.533 13.9667 355.449 13.6 357.616 13.6Z" fill="#141414"/>
</svg>
