<svg width="369" height="48" viewBox="0 0 369 48" fill="none" xmlns="http://www.w3.org/2000/svg">
<path d="M26.312 4.016C26.184 5.456 26.088 6.848 26.024 8.192C25.992 9.536 25.976 10.576 25.976 11.312C25.976 12.016 25.992 12.688 26.024 13.328C26.056 13.968 26.088 14.512 26.12 14.96H25.016C24.6 12.464 24.024 10.512 23.288 9.104C22.552 7.664 21.64 6.64 20.552 6.032C19.496 5.424 18.232 5.12 16.76 5.12H15.176C14.248 5.12 13.544 5.2 13.064 5.36C12.584 5.52 12.264 5.84 12.104 6.32C11.944 6.8 11.864 7.536 11.864 8.528V32.624C11.864 33.872 11.992 34.8 12.248 35.408C12.504 36.016 13 36.416 13.736 36.608C14.472 36.8 15.56 36.912 17 36.944V38C16.008 37.968 14.728 37.936 13.16 37.904C11.592 37.872 9.944 37.856 8.216 37.856C6.84 37.856 5.496 37.872 4.184 37.904C2.872 37.936 1.688 37.968 0.632 38V37.04C1.656 36.976 2.424 36.848 2.936 36.656C3.448 36.464 3.784 36.08 3.944 35.504C4.136 34.928 4.232 34.064 4.232 32.912V9.104C4.232 7.92 4.136 7.056 3.944 6.512C3.784 5.936 3.432 5.552 2.888 5.36C2.376 5.136 1.624 5.008 0.632 4.976V4.016C1.944 4.048 3.336 4.08 4.808 4.112C6.28 4.112 7.736 4.128 9.176 4.16C10.616 4.16 11.96 4.16 13.208 4.16C14.456 4.16 15.48 4.16 16.28 4.16C17.752 4.16 19.416 4.16 21.272 4.16C23.16 4.128 24.84 4.08 26.312 4.016ZM19.16 20.624C19.16 20.624 19.16 20.784 19.16 21.104C19.16 21.424 19.16 21.584 19.16 21.584H10.424C10.424 21.584 10.424 21.424 10.424 21.104C10.424 20.784 10.424 20.624 10.424 20.624H19.16ZM20.36 14.288C20.232 16.112 20.168 17.504 20.168 18.464C20.2 19.424 20.216 20.304 20.216 21.104C20.216 21.904 20.232 22.784 20.264 23.744C20.296 24.704 20.376 26.096 20.504 27.92H19.4C19.208 26.8 18.904 25.76 18.488 24.8C18.072 23.84 17.464 23.072 16.664 22.496C15.864 21.888 14.824 21.584 13.544 21.584V20.624C14.504 20.624 15.304 20.432 15.944 20.048C16.616 19.632 17.176 19.104 17.624 18.464C18.072 17.792 18.424 17.088 18.68 16.352C18.936 15.616 19.128 14.928 19.256 14.288H20.36ZM39.7235 12.512C42.5395 12.512 44.7475 13.344 46.3475 15.008C47.9475 16.672 48.7475 19.392 48.7475 23.168H32.9555L32.8595 22.256H42.6995C42.7315 20.688 42.6355 19.248 42.4115 17.936C42.1875 16.592 41.8355 15.52 41.3555 14.72C40.8755 13.92 40.2355 13.52 39.4355 13.52C38.3155 13.52 37.3555 14.224 36.5555 15.632C35.7875 17.04 35.3235 19.376 35.1635 22.64L35.3075 22.928C35.2755 23.312 35.2435 23.712 35.2115 24.128C35.2115 24.544 35.2115 24.976 35.2115 25.424C35.2115 27.632 35.5155 29.424 36.1235 30.8C36.7635 32.176 37.5635 33.184 38.5235 33.824C39.4835 34.432 40.4595 34.736 41.4515 34.736C42.1235 34.736 42.8115 34.64 43.5155 34.448C44.2515 34.224 44.9875 33.84 45.7235 33.296C46.4595 32.72 47.1475 31.92 47.7875 30.896L48.6515 31.184C48.2675 32.4 47.6595 33.584 46.8275 34.736C45.9955 35.888 44.9395 36.832 43.6595 37.568C42.3795 38.304 40.8435 38.672 39.0515 38.672C36.8755 38.672 34.9555 38.208 33.2915 37.28C31.6275 36.352 30.3155 34.944 29.3555 33.056C28.4275 31.168 27.9635 28.768 27.9635 25.856C27.9635 22.88 28.4595 20.4 29.4515 18.416C30.4755 16.432 31.8675 14.96 33.6275 14C35.4195 13.008 37.4515 12.512 39.7235 12.512ZM61.319 0.415998V33.536C61.319 34.88 61.543 35.792 61.991 36.272C62.471 36.752 63.271 36.992 64.391 36.992V38C63.783 37.968 62.871 37.936 61.655 37.904C60.439 37.84 59.207 37.808 57.959 37.808C56.711 37.808 55.447 37.84 54.167 37.904C52.919 37.936 51.975 37.968 51.335 38V36.992C52.455 36.992 53.239 36.752 53.687 36.272C54.167 35.792 54.407 34.88 54.407 33.536V6.176C54.407 4.736 54.183 3.68 53.735 3.008C53.319 2.304 52.519 1.952 51.335 1.952V0.943999C52.359 1.04 53.351 1.088 54.311 1.088C55.623 1.088 56.871 1.04 58.055 0.943999C59.239 0.815999 60.327 0.639998 61.319 0.415998ZM72.6733 0.799998C74.0173 0.799998 75.0733 1.136 75.8413 1.808C76.6413 2.448 77.0413 3.344 77.0413 4.496C77.0413 5.648 76.6413 6.56 75.8413 7.232C75.0733 7.872 74.0173 8.192 72.6733 8.192C71.3293 8.192 70.2573 7.872 69.4573 7.232C68.6893 6.56 68.3053 5.648 68.3053 4.496C68.3053 3.344 68.6893 2.448 69.4573 1.808C70.2573 1.136 71.3293 0.799998 72.6733 0.799998ZM76.4173 12.656V33.536C76.4173 34.88 76.6413 35.792 77.0893 36.272C77.5693 36.752 78.3693 36.992 79.4893 36.992V38C78.9133 37.968 78.0173 37.936 76.8013 37.904C75.5853 37.84 74.3533 37.808 73.1053 37.808C71.8573 37.808 70.5933 37.84 69.3133 37.904C68.0333 37.936 67.0733 37.968 66.4333 38V36.992C67.5533 36.992 68.3373 36.752 68.7853 36.272C69.2653 35.792 69.5053 34.88 69.5053 33.536V18.416C69.5053 16.976 69.2813 15.92 68.8333 15.248C68.4173 14.544 67.6173 14.192 66.4333 14.192V13.184C67.4573 13.28 68.4493 13.328 69.4093 13.328C70.7533 13.328 72.0013 13.28 73.1533 13.184C74.3373 13.056 75.4253 12.88 76.4173 12.656ZM91.3659 12.656V41.936C91.3659 43.44 91.7499 44.432 92.5179 44.912C93.2859 45.424 94.3419 45.68 95.6859 45.68V46.688C94.8539 46.656 93.7019 46.608 92.2299 46.544C90.7899 46.512 89.2539 46.496 87.6219 46.496C86.4379 46.496 85.2699 46.512 84.1179 46.544C82.9979 46.608 82.1499 46.656 81.5739 46.688V45.68C82.6299 45.68 83.3659 45.456 83.7819 45.008C84.2299 44.56 84.4539 43.696 84.4539 42.416V18.416C84.4539 16.976 84.2299 15.92 83.7819 15.248C83.3339 14.544 82.5339 14.192 81.3819 14.192V13.184C82.4059 13.28 83.3979 13.328 84.3579 13.328C85.6699 13.328 86.9179 13.28 88.1019 13.184C89.2859 13.056 90.3739 12.88 91.3659 12.656ZM98.8059 12.512C100.438 12.512 101.894 12.96 103.174 13.856C104.454 14.72 105.478 16.048 106.246 17.84C107.014 19.6 107.398 21.808 107.398 24.464C107.398 26.8 107.126 28.848 106.582 30.608C106.07 32.368 105.318 33.856 104.326 35.072C103.366 36.256 102.198 37.152 100.822 37.76C99.4779 38.368 97.9579 38.672 96.2619 38.672C95.0139 38.672 93.8779 38.448 92.8539 38C91.8299 37.584 91.0459 36.976 90.5019 36.176L90.9819 35.552C91.3019 36.128 91.7499 36.576 92.3259 36.896C92.9339 37.216 93.6219 37.376 94.3899 37.376C95.8299 37.376 96.9659 36.896 97.7979 35.936C98.6299 34.944 99.2219 33.568 99.5739 31.808C99.9579 30.016 100.15 27.888 100.15 25.424C100.15 22.672 99.9739 20.512 99.6219 18.944C99.2699 17.376 98.7899 16.256 98.1819 15.584C97.5739 14.912 96.8379 14.576 95.9739 14.576C94.8219 14.576 93.7659 15.024 92.8059 15.92C91.8779 16.816 91.3499 18.096 91.2219 19.76L90.9819 18.08C91.5579 16.256 92.5339 14.88 93.9099 13.952C95.3179 12.992 96.9499 12.512 98.8059 12.512ZM122.739 12.512C125.555 12.512 127.763 13.344 129.363 15.008C130.963 16.672 131.763 19.392 131.763 23.168H115.971L115.875 22.256H125.715C125.747 20.688 125.651 19.248 125.427 17.936C125.203 16.592 124.851 15.52 124.371 14.72C123.891 13.92 123.251 13.52 122.451 13.52C121.331 13.52 120.371 14.224 119.571 15.632C118.803 17.04 118.339 19.376 118.179 22.64L118.323 22.928C118.291 23.312 118.259 23.712 118.227 24.128C118.227 24.544 118.227 24.976 118.227 25.424C118.227 27.632 118.531 29.424 119.139 30.8C119.779 32.176 120.579 33.184 121.539 33.824C122.499 34.432 123.475 34.736 124.467 34.736C125.139 34.736 125.827 34.64 126.531 34.448C127.267 34.224 128.003 33.84 128.739 33.296C129.475 32.72 130.163 31.92 130.803 30.896L131.667 31.184C131.283 32.4 130.675 33.584 129.843 34.736C129.011 35.888 127.955 36.832 126.675 37.568C125.395 38.304 123.859 38.672 122.067 38.672C119.891 38.672 117.971 38.208 116.307 37.28C114.643 36.352 113.331 34.944 112.371 33.056C111.443 31.168 110.979 28.768 110.979 25.856C110.979 22.88 111.475 20.4 112.467 18.416C113.491 16.432 114.883 14.96 116.643 14C118.435 13.008 120.467 12.512 122.739 12.512ZM164.034 3.344C166.21 3.344 167.986 3.648 169.362 4.256C170.738 4.864 171.97 5.6 173.058 6.464C173.442 6.752 173.762 6.896 174.018 6.896C174.626 6.896 175.026 5.936 175.218 4.016H176.322C176.258 5.264 176.21 6.784 176.178 8.576C176.146 10.336 176.13 12.688 176.13 15.632H175.026C174.802 13.712 174.45 12.048 173.97 10.64C173.522 9.2 172.674 7.968 171.426 6.944C170.658 6.208 169.698 5.632 168.546 5.216C167.426 4.8 166.29 4.592 165.138 4.592C163.378 4.592 161.874 5.056 160.626 5.984C159.378 6.88 158.354 8.112 157.554 9.68C156.754 11.248 156.162 13.024 155.778 15.008C155.394 16.96 155.202 18.992 155.202 21.104C155.202 26.864 155.986 31.072 157.554 33.728C159.154 36.384 161.442 37.712 164.418 37.712C165.186 37.712 165.858 37.616 166.434 37.424C167.01 37.232 167.474 37.008 167.826 36.752C168.274 36.432 168.578 36.096 168.738 35.744C168.898 35.36 168.978 34.864 168.978 34.256V29.552C168.978 28.08 168.85 26.992 168.594 26.288C168.37 25.552 167.906 25.056 167.202 24.8C166.498 24.544 165.474 24.4 164.13 24.368V23.408C164.802 23.44 165.602 23.472 166.53 23.504C167.49 23.504 168.482 23.52 169.506 23.552C170.53 23.552 171.474 23.552 172.338 23.552C173.682 23.552 174.914 23.536 176.034 23.504C177.154 23.472 178.066 23.44 178.77 23.408V24.368C178.162 24.4 177.698 24.512 177.378 24.704C177.09 24.896 176.882 25.28 176.754 25.856C176.658 26.432 176.61 27.312 176.61 28.496V38H175.65C175.618 37.456 175.49 36.864 175.266 36.224C175.074 35.584 174.738 35.264 174.258 35.264C174.034 35.264 173.73 35.328 173.346 35.456C172.994 35.552 172.434 35.824 171.666 36.272C170.482 36.944 169.234 37.52 167.922 38C166.61 38.448 165.234 38.672 163.794 38.672C160.082 38.672 156.946 37.984 154.386 36.608C151.826 35.232 149.89 33.264 148.578 30.704C147.298 28.112 146.658 25.008 146.658 21.392C146.658 17.744 147.394 14.576 148.866 11.888C150.37 9.2 152.418 7.104 155.01 5.6C157.634 4.096 160.642 3.344 164.034 3.344ZM193.427 12.512C195.763 12.512 197.811 12.944 199.571 13.808C201.331 14.672 202.707 16.064 203.699 17.984C204.691 19.904 205.187 22.448 205.187 25.616C205.187 28.784 204.691 31.328 203.699 33.248C202.707 35.136 201.331 36.512 199.571 37.376C197.811 38.24 195.763 38.672 193.427 38.672C191.155 38.672 189.123 38.24 187.331 37.376C185.571 36.512 184.179 35.136 183.155 33.248C182.163 31.328 181.667 28.784 181.667 25.616C181.667 22.448 182.163 19.904 183.155 17.984C184.179 16.064 185.571 14.672 187.331 13.808C189.123 12.944 191.155 12.512 193.427 12.512ZM193.427 13.472C192.147 13.472 191.075 14.432 190.211 16.352C189.347 18.24 188.915 21.328 188.915 25.616C188.915 29.904 189.347 32.992 190.211 34.88C191.075 36.768 192.147 37.712 193.427 37.712C194.739 37.712 195.811 36.768 196.643 34.88C197.507 32.992 197.939 29.904 197.939 25.616C197.939 21.328 197.507 18.24 196.643 16.352C195.811 14.432 194.739 13.472 193.427 13.472ZM226.039 12.512C227.383 12.512 228.471 12.688 229.303 13.04C230.167 13.36 230.839 13.808 231.319 14.384C231.831 14.992 232.199 15.776 232.423 16.736C232.679 17.696 232.807 18.992 232.807 20.624V33.536C232.807 34.88 233.031 35.792 233.479 36.272C233.959 36.752 234.759 36.992 235.879 36.992V38C235.271 37.968 234.359 37.936 233.143 37.904C231.927 37.84 230.727 37.808 229.543 37.808C228.327 37.808 227.127 37.84 225.943 37.904C224.791 37.936 223.911 37.968 223.303 38V36.992C224.263 36.992 224.935 36.752 225.319 36.272C225.703 35.792 225.895 34.88 225.895 33.536V18.608C225.895 17.808 225.815 17.12 225.655 16.544C225.495 15.936 225.207 15.472 224.791 15.152C224.375 14.8 223.751 14.624 222.919 14.624C222.055 14.624 221.255 14.864 220.519 15.344C219.815 15.824 219.239 16.496 218.791 17.36C218.375 18.192 218.167 19.136 218.167 20.192V33.536C218.167 34.88 218.359 35.792 218.743 36.272C219.159 36.752 219.831 36.992 220.759 36.992V38C220.183 37.968 219.335 37.936 218.215 37.904C217.127 37.84 215.991 37.808 214.807 37.808C213.591 37.808 212.343 37.84 211.063 37.904C209.783 37.936 208.823 37.968 208.183 38V36.992C209.303 36.992 210.087 36.752 210.535 36.272C211.015 35.792 211.255 34.88 211.255 33.536V18.416C211.255 16.976 211.031 15.92 210.583 15.248C210.167 14.544 209.367 14.192 208.183 14.192V13.184C209.207 13.28 210.199 13.328 211.159 13.328C212.503 13.328 213.751 13.28 214.903 13.184C216.087 13.056 217.175 12.88 218.167 12.656V16.976C218.967 15.344 220.055 14.192 221.431 13.52C222.807 12.848 224.343 12.512 226.039 12.512ZM250.148 12.512C251.396 12.512 252.532 12.656 253.556 12.944C254.612 13.2 255.476 13.536 256.148 13.952C256.98 14.464 257.62 15.104 258.068 15.872C258.548 16.608 258.788 17.472 258.788 18.464C258.788 19.584 258.436 20.512 257.732 21.248C257.028 21.952 256.116 22.304 254.996 22.304C253.876 22.304 252.98 21.984 252.308 21.344C251.636 20.704 251.3 19.84 251.3 18.752C251.3 17.728 251.62 16.88 252.26 16.208C252.9 15.504 253.636 15.04 254.468 14.816C254.212 14.496 253.828 14.224 253.316 14C252.804 13.776 252.228 13.664 251.588 13.664C250.596 13.664 249.716 13.952 248.948 14.528C248.212 15.104 247.588 15.904 247.076 16.928C246.564 17.952 246.164 19.152 245.876 20.528C245.62 21.904 245.492 23.408 245.492 25.04C245.492 27.504 245.796 29.44 246.404 30.848C247.044 32.256 247.844 33.248 248.804 33.824C249.796 34.4 250.82 34.688 251.876 34.688C252.484 34.688 253.14 34.592 253.844 34.4C254.58 34.208 255.316 33.824 256.052 33.248C256.82 32.672 257.524 31.856 258.164 30.8L258.98 31.088C258.628 32.272 258.052 33.456 257.252 34.64C256.452 35.824 255.412 36.8 254.132 37.568C252.852 38.304 251.284 38.672 249.428 38.672C247.348 38.672 245.46 38.224 243.764 37.328C242.1 36.4 240.756 34.992 239.732 33.104C238.74 31.184 238.244 28.72 238.244 25.712C238.244 22.832 238.756 20.416 239.78 18.464C240.836 16.48 242.26 14.992 244.052 14C245.844 13.008 247.876 12.512 250.148 12.512ZM249.092 37.904L248.084 41.12C248.596 40.928 249.14 40.784 249.716 40.688C250.292 40.592 250.884 40.544 251.492 40.544C252.58 40.544 253.396 40.768 253.94 41.216C254.516 41.696 254.804 42.336 254.804 43.136C254.804 44.032 254.484 44.768 253.844 45.344C253.236 45.92 252.42 46.336 251.396 46.592C250.372 46.88 249.268 47.024 248.084 47.024C247.22 47.024 246.436 46.96 245.732 46.832C245.028 46.736 244.42 46.608 243.908 46.448L244.148 45.584C244.34 45.616 244.628 45.648 245.012 45.68C245.396 45.744 245.812 45.776 246.26 45.776C246.804 45.776 247.332 45.712 247.844 45.584C248.388 45.456 248.836 45.248 249.188 44.96C249.572 44.672 249.764 44.288 249.764 43.808C249.764 42.976 249.236 42.56 248.18 42.56C247.924 42.56 247.604 42.576 247.22 42.608C246.868 42.672 246.548 42.768 246.26 42.896L247.796 37.904H249.092ZM268.104 38.336C266.664 38.336 265.464 38.064 264.504 37.52C263.544 36.976 262.84 36.256 262.392 35.36C261.944 34.432 261.72 33.424 261.72 32.336C261.72 30.96 262.024 29.84 262.632 28.976C263.272 28.112 264.088 27.408 265.08 26.864C266.072 26.32 267.112 25.872 268.2 25.52C269.32 25.168 270.376 24.832 271.368 24.512C272.392 24.16 273.208 23.76 273.816 23.312C274.456 22.832 274.776 22.224 274.776 21.488V17.744C274.776 16.912 274.632 16.176 274.344 15.536C274.088 14.864 273.672 14.352 273.096 14C272.552 13.648 271.832 13.472 270.936 13.472C270.296 13.472 269.656 13.568 269.016 13.76C268.376 13.92 267.848 14.208 267.432 14.624C268.328 14.944 269.016 15.44 269.496 16.112C270.008 16.752 270.264 17.488 270.264 18.32C270.264 19.408 269.88 20.272 269.112 20.912C268.376 21.552 267.496 21.872 266.472 21.872C265.32 21.872 264.44 21.52 263.832 20.816C263.256 20.08 262.968 19.2 262.968 18.176C262.968 17.248 263.192 16.48 263.64 15.872C264.12 15.264 264.776 14.688 265.608 14.144C266.504 13.632 267.576 13.232 268.824 12.944C270.104 12.656 271.48 12.512 272.952 12.512C274.424 12.512 275.752 12.672 276.936 12.992C278.12 13.28 279.112 13.824 279.912 14.624C280.648 15.36 281.128 16.272 281.352 17.36C281.576 18.416 281.688 19.76 281.688 21.392V34.448C281.688 35.248 281.768 35.808 281.928 36.128C282.088 36.416 282.36 36.56 282.744 36.56C283.032 36.56 283.304 36.48 283.56 36.32C283.848 36.16 284.152 35.968 284.472 35.744L284.952 36.56C284.28 37.136 283.496 37.584 282.6 37.904C281.736 38.192 280.76 38.336 279.672 38.336C278.488 38.336 277.544 38.176 276.84 37.856C276.136 37.504 275.624 37.04 275.304 36.464C275.016 35.888 274.872 35.216 274.872 34.448C274.104 35.664 273.176 36.624 272.088 37.328C271 38 269.672 38.336 268.104 38.336ZM271.512 35.264C272.152 35.264 272.728 35.12 273.24 34.832C273.784 34.512 274.296 34 274.776 33.296V23.456C274.488 23.936 274.088 24.368 273.576 24.752C273.064 25.136 272.52 25.536 271.944 25.952C271.368 26.336 270.808 26.768 270.264 27.248C269.752 27.728 269.336 28.32 269.016 29.024C268.696 29.728 268.536 30.576 268.536 31.568C268.536 32.816 268.808 33.744 269.352 34.352C269.896 34.96 270.616 35.264 271.512 35.264ZM296.116 0.415998V33.536C296.116 34.88 296.34 35.792 296.788 36.272C297.268 36.752 298.068 36.992 299.188 36.992V38C298.58 37.968 297.668 37.936 296.452 37.904C295.236 37.84 294.004 37.808 292.756 37.808C291.508 37.808 290.244 37.84 288.964 37.904C287.716 37.936 286.772 37.968 286.132 38V36.992C287.252 36.992 288.036 36.752 288.484 36.272C288.964 35.792 289.204 34.88 289.204 33.536V6.176C289.204 4.736 288.98 3.68 288.532 3.008C288.116 2.304 287.316 1.952 286.132 1.952V0.943999C287.156 1.04 288.148 1.088 289.108 1.088C290.42 1.088 291.668 1.04 292.852 0.943999C294.036 0.815999 295.124 0.639998 296.116 0.415998ZM324.414 13.184V14.144C323.806 14.304 323.23 14.688 322.686 15.296C322.142 15.872 321.614 16.864 321.102 18.272L314.094 38.096C313.582 38.064 313.054 38.048 312.51 38.048C311.998 38.048 311.486 38.064 310.974 38.096L302.43 16.88C301.918 15.632 301.406 14.88 300.894 14.624C300.414 14.336 299.998 14.192 299.646 14.192V13.184C300.67 13.248 301.726 13.312 302.814 13.376C303.934 13.408 305.15 13.424 306.462 13.424C307.454 13.424 308.494 13.408 309.582 13.376C310.702 13.312 311.742 13.248 312.702 13.184V14.192C312.03 14.192 311.422 14.224 310.878 14.288C310.366 14.352 310.014 14.56 309.822 14.912C309.63 15.264 309.662 15.888 309.918 16.784L315.534 31.664L315.054 32.336L318.846 21.824C319.454 20.096 319.71 18.688 319.614 17.6C319.518 16.48 319.166 15.648 318.558 15.104C317.95 14.528 317.134 14.208 316.11 14.144V13.184C316.59 13.216 317.102 13.248 317.646 13.28C318.222 13.28 318.766 13.296 319.278 13.328C319.822 13.328 320.302 13.328 320.718 13.328C321.358 13.328 322.03 13.312 322.734 13.28C323.438 13.248 323.998 13.216 324.414 13.184ZM337.286 12.512C340.102 12.512 342.31 13.344 343.91 15.008C345.51 16.672 346.31 19.392 346.31 23.168H330.518L330.422 22.256H340.262C340.294 20.688 340.198 19.248 339.974 17.936C339.75 16.592 339.398 15.52 338.918 14.72C338.438 13.92 337.798 13.52 336.998 13.52C335.878 13.52 334.918 14.224 334.118 15.632C333.35 17.04 332.886 19.376 332.726 22.64L332.87 22.928C332.838 23.312 332.806 23.712 332.774 24.128C332.774 24.544 332.774 24.976 332.774 25.424C332.774 27.632 333.078 29.424 333.686 30.8C334.326 32.176 335.126 33.184 336.086 33.824C337.046 34.432 338.022 34.736 339.014 34.736C339.686 34.736 340.374 34.64 341.078 34.448C341.814 34.224 342.55 33.84 343.286 33.296C344.022 32.72 344.71 31.92 345.35 30.896L346.214 31.184C345.83 32.4 345.222 33.584 344.39 34.736C343.558 35.888 342.502 36.832 341.222 37.568C339.942 38.304 338.406 38.672 336.614 38.672C334.438 38.672 332.518 38.208 330.854 37.28C329.19 36.352 327.878 34.944 326.918 33.056C325.99 31.168 325.526 28.768 325.526 25.856C325.526 22.88 326.022 20.4 327.014 18.416C328.038 16.432 329.43 14.96 331.19 14C332.982 13.008 335.014 12.512 337.286 12.512ZM358.594 12.512C359.938 12.512 361.106 12.688 362.098 13.04C363.122 13.36 363.858 13.68 364.306 14C365.394 14.736 366.066 14.256 366.322 12.56H367.33C367.266 13.456 367.218 14.56 367.186 15.872C367.154 17.152 367.138 18.864 367.138 21.008H366.13C365.97 19.824 365.666 18.656 365.218 17.504C364.77 16.352 364.114 15.408 363.25 14.672C362.418 13.936 361.33 13.568 359.986 13.568C359.058 13.568 358.274 13.84 357.634 14.384C356.994 14.896 356.674 15.648 356.674 16.64C356.674 17.6 356.962 18.448 357.538 19.184C358.114 19.888 358.85 20.576 359.746 21.248C360.674 21.888 361.634 22.576 362.626 23.312C363.682 24.112 364.642 24.912 365.506 25.712C366.37 26.48 367.058 27.328 367.57 28.256C368.082 29.184 368.338 30.288 368.338 31.568C368.338 33.008 367.922 34.272 367.09 35.36C366.258 36.416 365.154 37.232 363.778 37.808C362.434 38.384 360.93 38.672 359.266 38.672C358.306 38.672 357.442 38.576 356.674 38.384C355.938 38.192 355.298 37.952 354.754 37.664C354.338 37.472 353.938 37.296 353.554 37.136C353.202 36.944 352.866 36.784 352.546 36.656C352.226 36.56 351.938 36.672 351.682 36.992C351.458 37.312 351.282 37.76 351.154 38.336H350.146C350.21 37.312 350.258 36.064 350.29 34.592C350.322 33.12 350.338 31.168 350.338 28.736H351.346C351.538 30.464 351.89 32 352.402 33.344C352.914 34.656 353.602 35.696 354.466 36.464C355.362 37.2 356.482 37.568 357.826 37.568C358.37 37.568 358.898 37.456 359.41 37.232C359.922 37.008 360.338 36.64 360.658 36.128C361.01 35.616 361.186 34.96 361.186 34.16C361.186 32.752 360.722 31.584 359.794 30.656C358.898 29.728 357.746 28.72 356.338 27.632C355.314 26.8 354.338 25.984 353.41 25.184C352.514 24.352 351.778 23.456 351.202 22.496C350.626 21.504 350.338 20.384 350.338 19.136C350.338 17.696 350.722 16.48 351.49 15.488C352.258 14.496 353.266 13.76 354.514 13.28C355.794 12.768 357.154 12.512 358.594 12.512Z" fill="#141414"/>
</svg>
