<svg width="377" height="55" viewBox="0 0 377 55" fill="none" xmlns="http://www.w3.org/2000/svg">
<path d="M0.25 41V6.35H20.9L20.05 12.2H8.45V21.4H18.55V27.25H8.45V41H0.25ZM45.8574 27.2C45.8574 28.3 45.8074 29.25 45.7074 30.05H29.2574C29.5241 32.2833 30.1574 33.85 31.1574 34.75C32.1574 35.65 33.5408 36.1 35.3074 36.1C36.3741 36.1 37.4074 35.9167 38.4074 35.55C39.4074 35.15 40.4908 34.55 41.6574 33.75L44.9074 38.15C41.8074 40.6167 38.3574 41.85 34.5574 41.85C30.2574 41.85 26.9574 40.5833 24.6574 38.05C22.3574 35.5167 21.2074 32.1167 21.2074 27.85C21.2074 25.15 21.6908 22.7333 22.6574 20.6C23.6241 18.4333 25.0408 16.7333 26.9074 15.5C28.7741 14.2333 31.0074 13.6 33.6074 13.6C37.4408 13.6 40.4408 14.8 42.6074 17.2C44.7741 19.6 45.8574 22.9333 45.8574 27.2ZM38.1074 24.95C38.0408 20.8833 36.6074 18.85 33.8074 18.85C32.4408 18.85 31.3741 19.35 30.6074 20.35C29.8741 21.35 29.4241 23 29.2574 25.3H38.1074V24.95ZM57.3453 41.85C55.0453 41.85 53.2453 41.2 51.9453 39.9C50.6786 38.5667 50.0453 36.6833 50.0453 34.25V3.9L57.9453 3.05V33.95C57.9453 35.05 58.3953 35.6 59.2953 35.6C59.762 35.6 60.1953 35.5167 60.5953 35.35L62.1453 40.95C60.712 41.55 59.112 41.85 57.3453 41.85ZM73.0391 14.45V41H65.1391V14.45H73.0391ZM69.0391 0.449998C70.4057 0.449998 71.5224 0.883331 72.3891 1.75C73.2891 2.58333 73.7391 3.65 73.7391 4.95C73.7391 6.25 73.2891 7.33333 72.3891 8.2C71.5224 9.03333 70.4057 9.45 69.0391 9.45C67.6724 9.45 66.5557 9.03333 65.6891 8.2C64.8224 7.33333 64.3891 6.25 64.3891 4.95C64.3891 3.65 64.8224 2.58333 65.6891 1.75C66.5557 0.883331 67.6724 0.449998 69.0391 0.449998ZM94.2504 13.6C97.5837 13.6 100.067 14.8333 101.7 17.3C103.334 19.7667 104.15 23.2167 104.15 27.65C104.15 30.3833 103.717 32.8333 102.85 35C102.017 37.1333 100.8 38.8167 99.2004 40.05C97.6004 41.25 95.7337 41.85 93.6004 41.85C90.9337 41.85 88.7837 40.9333 87.1504 39.1V51.25L79.2504 52.1V14.45H86.2004L86.6004 17.4C87.6337 16.1 88.8171 15.15 90.1504 14.55C91.4837 13.9167 92.8504 13.6 94.2504 13.6ZM91.2004 36.05C94.3671 36.05 95.9504 33.2833 95.9504 27.75C95.9504 24.6167 95.6004 22.45 94.9004 21.25C94.2004 20.0167 93.1504 19.4 91.7504 19.4C90.8504 19.4 90.0004 19.6667 89.2004 20.2C88.4337 20.7333 87.7504 21.5 87.1504 22.5V33.7C88.2171 35.2667 89.5671 36.05 91.2004 36.05ZM132.234 27.2C132.234 28.3 132.184 29.25 132.084 30.05H115.634C115.901 32.2833 116.534 33.85 117.534 34.75C118.534 35.65 119.918 36.1 121.684 36.1C122.751 36.1 123.784 35.9167 124.784 35.55C125.784 35.15 126.868 34.55 128.034 33.75L131.284 38.15C128.184 40.6167 124.734 41.85 120.934 41.85C116.634 41.85 113.334 40.5833 111.034 38.05C108.734 35.5167 107.584 32.1167 107.584 27.85C107.584 25.15 108.068 22.7333 109.034 20.6C110.001 18.4333 111.418 16.7333 113.284 15.5C115.151 14.2333 117.384 13.6 119.984 13.6C123.818 13.6 126.818 14.8 128.984 17.2C131.151 19.6 132.234 22.9333 132.234 27.2ZM124.484 24.95C124.418 20.8833 122.984 18.85 120.184 18.85C118.818 18.85 117.751 19.35 116.984 20.35C116.251 21.35 115.801 23 115.634 25.3H124.484V24.95ZM163.688 5.5C168.154 5.5 172.004 6.91667 175.238 9.75L171.088 14.1C169.854 13.1667 168.704 12.5 167.638 12.1C166.604 11.6667 165.404 11.45 164.038 11.45C161.471 11.45 159.421 12.4667 157.888 14.5C156.354 16.5 155.588 19.55 155.588 23.65C155.588 28.0833 156.171 31.2333 157.338 33.1C158.504 34.9333 160.321 35.85 162.788 35.85C164.521 35.85 166.088 35.4667 167.488 34.7V26.85H162.988L162.188 21.05H175.438V38.2C173.638 39.3667 171.654 40.2667 169.488 40.9C167.321 41.5333 165.154 41.85 162.988 41.85C157.721 41.85 153.754 40.3167 151.088 37.25C148.421 34.15 147.087 29.6167 147.087 23.65C147.087 19.85 147.804 16.5833 149.238 13.85C150.704 11.1167 152.688 9.05 155.188 7.65C157.721 6.21666 160.554 5.5 163.688 5.5ZM192.264 13.6C196.331 13.6 199.514 14.85 201.814 17.35C204.114 19.8167 205.264 23.2833 205.264 27.75C205.264 30.5833 204.731 33.0667 203.664 35.2C202.631 37.3 201.131 38.9333 199.164 40.1C197.231 41.2667 194.931 41.85 192.264 41.85C188.231 41.85 185.047 40.6167 182.714 38.15C180.414 35.65 179.264 32.1667 179.264 27.7C179.264 24.8667 179.781 22.4 180.814 20.3C181.881 18.1667 183.381 16.5167 185.314 15.35C187.281 14.1833 189.597 13.6 192.264 13.6ZM192.264 19.4C190.664 19.4 189.464 20.0833 188.664 21.45C187.864 22.7833 187.464 24.8667 187.464 27.7C187.464 30.6 187.847 32.7167 188.614 34.05C189.414 35.3833 190.631 36.05 192.264 36.05C193.864 36.05 195.064 35.3833 195.864 34.05C196.664 32.6833 197.064 30.5833 197.064 27.75C197.064 24.85 196.664 22.7333 195.864 21.4C195.097 20.0667 193.897 19.4 192.264 19.4ZM225.513 13.6C227.813 13.6 229.613 14.3 230.913 15.7C232.213 17.1 232.863 19.0667 232.863 21.6V41H224.963V22.95C224.963 21.6167 224.747 20.7 224.313 20.2C223.913 19.6667 223.297 19.4 222.463 19.4C220.863 19.4 219.33 20.55 217.863 22.85V41H209.963V14.45H216.863L217.413 17.6C218.547 16.2667 219.763 15.2667 221.063 14.6C222.397 13.9333 223.88 13.6 225.513 13.6ZM259.421 38.7C257.154 40.5 254.637 41.5333 251.871 41.8V43.4C253.637 43.6 254.937 44.1167 255.771 44.95C256.637 45.8167 257.071 46.95 257.071 48.35C257.071 50.05 256.387 51.4333 255.021 52.5C253.687 53.5667 251.887 54.1 249.621 54.1C248.487 54.1 247.437 53.95 246.471 53.65C245.504 53.3833 244.687 53.0333 244.021 52.6L245.821 48.95C246.954 49.5167 248.021 49.8 249.021 49.8C250.587 49.8 251.371 49.3 251.371 48.3C251.371 47.7 251.004 47.2667 250.271 47C249.537 46.7333 248.371 46.6 246.771 46.6L247.371 41.55C244.237 40.9167 241.771 39.4 239.971 37C238.204 34.6 237.321 31.5833 237.321 27.95C237.321 25.15 237.854 22.6667 238.921 20.5C239.987 18.3333 241.504 16.65 243.471 15.45C245.437 14.2167 247.721 13.6 250.321 13.6C252.154 13.6 253.804 13.8667 255.271 14.4C256.737 14.9333 258.121 15.75 259.421 16.85L256.021 21.55C254.354 20.2833 252.671 19.65 250.971 19.65C249.204 19.65 247.871 20.3 246.971 21.6C246.071 22.9 245.621 25 245.621 27.9C245.621 30.7 246.071 32.6833 246.971 33.85C247.871 35.0167 249.171 35.6 250.871 35.6C251.771 35.6 252.587 35.4667 253.321 35.2C254.054 34.9 254.937 34.4333 255.971 33.8L259.421 38.7ZM283.358 33.3C283.358 34.3 283.492 35.0333 283.758 35.5C284.058 35.9667 284.525 36.3167 285.158 36.55L283.508 41.7C281.875 41.5667 280.542 41.2167 279.508 40.65C278.475 40.05 277.675 39.1167 277.108 37.85C275.375 40.5167 272.708 41.85 269.108 41.85C266.475 41.85 264.375 41.0833 262.808 39.55C261.242 38.0167 260.458 36.0167 260.458 33.55C260.458 30.65 261.525 28.4333 263.658 26.9C265.792 25.3667 268.875 24.6 272.908 24.6H275.608V23.45C275.608 21.8833 275.275 20.8167 274.608 20.25C273.942 19.65 272.775 19.35 271.108 19.35C270.242 19.35 269.192 19.4833 267.958 19.75C266.725 19.9833 265.458 20.3167 264.158 20.75L262.358 15.55C264.025 14.9167 265.725 14.4333 267.458 14.1C269.225 13.7667 270.858 13.6 272.358 13.6C276.158 13.6 278.942 14.3833 280.708 15.95C282.475 17.5167 283.358 19.8667 283.358 23V33.3ZM271.408 36.2C273.208 36.2 274.608 35.35 275.608 33.65V28.95H273.658C271.858 28.95 270.508 29.2667 269.608 29.9C268.742 30.5333 268.308 31.5167 268.308 32.85C268.308 33.9167 268.575 34.75 269.108 35.35C269.675 35.9167 270.442 36.2 271.408 36.2ZM296.213 41.85C293.913 41.85 292.113 41.2 290.813 39.9C289.546 38.5667 288.913 36.6833 288.913 34.25V3.9L296.813 3.05V33.95C296.813 35.05 297.263 35.6 298.163 35.6C298.629 35.6 299.063 35.5167 299.463 35.35L301.013 40.95C299.579 41.55 297.979 41.85 296.213 41.85ZM326.368 14.45L318.018 41H308.668L300.118 14.45H308.718L313.418 35L318.318 14.45H326.368ZM351.912 27.2C351.912 28.3 351.862 29.25 351.762 30.05H335.312C335.579 32.2833 336.212 33.85 337.212 34.75C338.212 35.65 339.595 36.1 341.362 36.1C342.429 36.1 343.462 35.9167 344.462 35.55C345.462 35.15 346.545 34.55 347.712 33.75L350.962 38.15C347.862 40.6167 344.412 41.85 340.612 41.85C336.312 41.85 333.012 40.5833 330.712 38.05C328.412 35.5167 327.262 32.1167 327.262 27.85C327.262 25.15 327.745 22.7333 328.712 20.6C329.679 18.4333 331.095 16.7333 332.962 15.5C334.829 14.2333 337.062 13.6 339.662 13.6C343.495 13.6 346.495 14.8 348.662 17.2C350.829 19.6 351.912 22.9333 351.912 27.2ZM344.162 24.95C344.095 20.8833 342.662 18.85 339.862 18.85C338.495 18.85 337.429 19.35 336.662 20.35C335.929 21.35 335.479 23 335.312 25.3H344.162V24.95ZM365.7 13.6C367.6 13.6 369.383 13.8833 371.05 14.45C372.717 15.0167 374.183 15.8167 375.45 16.85L372.55 21.3C370.383 19.9333 368.2 19.25 366 19.25C364.967 19.25 364.167 19.4333 363.6 19.8C363.067 20.1333 362.8 20.6167 362.8 21.25C362.8 21.75 362.917 22.1667 363.15 22.5C363.417 22.8 363.933 23.1167 364.7 23.45C365.467 23.7833 366.65 24.1833 368.25 24.65C371.017 25.45 373.067 26.5 374.4 27.8C375.767 29.0667 376.45 30.8333 376.45 33.1C376.45 34.9 375.933 36.4667 374.9 37.8C373.867 39.1 372.45 40.1 370.65 40.8C368.85 41.5 366.85 41.85 364.65 41.85C362.417 41.85 360.333 41.5 358.4 40.8C356.5 40.1 354.883 39.1333 353.55 37.9L357.4 33.6C359.633 35.3333 361.983 36.2 364.45 36.2C365.65 36.2 366.583 35.9833 367.25 35.55C367.95 35.1167 368.3 34.5 368.3 33.7C368.3 33.0667 368.167 32.5667 367.9 32.2C367.633 31.8333 367.117 31.5 366.35 31.2C365.583 30.8667 364.367 30.4667 362.7 30C360.067 29.2333 358.1 28.1667 356.8 26.8C355.5 25.4333 354.85 23.7333 354.85 21.7C354.85 20.1667 355.283 18.8 356.15 17.6C357.05 16.3667 358.317 15.4 359.95 14.7C361.617 13.9667 363.533 13.6 365.7 13.6Z" fill="#141414"/>
</svg>
